<svg width="1500" height="820" viewBox="0 0 1440 820" fill="none" xmlns="http://www.w3.org/2000/svg"> <mask id="mask0" style="mask-type:alpha" maskUnits="userSpaceOnUse" x="0" y="0" width="1440" height="820"> <rect width="1440" height="820" fill="#FF0000"/> </mask> <g mask="url(#mask0)"> <path opacity="0.7" d="M31 986H1306.51C1362.4 962.387 1414.95 930.1 1454.84 883.837C1454.84 228.211 1457.71 275.197 1448.87 270.619C1349.74 221.465 1255.39 346.759 1152.92 330.374C1093.21 320.977 1052.36 268.45 996.471 249.415C939.622 230.139 878.235 250.62 832.135 285.799C679.743 401.937 685.475 709.871 449.721 713.967C378.302 715.172 324.797 669.391 254.334 701.438C197.724 727.219 143.264 796.131 31.4777 761.434V986H31Z" fill="url(#paint0_linear)"/> <path opacity="0.7" d="M31 923.835C98.5973 956.604 -28.7149 986 1454.6 986C1454.6 587.468 1458.42 628.912 1445.77 625.538C1280.71 583.131 1290.75 424.345 1115.18 500.967C1039.94 533.736 1004.11 556.386 898.299 514.46C835.718 489.642 780.541 456.391 674.01 440.489C601.397 429.887 548.848 429.887 501.076 485.546C463.575 528.917 438.972 592.287 380.213 610.84C315.243 631.321 246.69 595.42 181.72 616.382C122.483 635.658 108.629 689.631 31 690.836V923.835V923.835Z" fill="url(#paint1_linear)"/> <path opacity="0.6" d="M1454.6 563.373C1360.49 501.69 1361.21 436.633 1318.45 453.259C1312.48 455.668 1299.11 467.957 1291.22 443.862C1264.95 364.589 1140.5 526.749 987.155 606.262C976.645 595.419 856.499 494.22 835.718 489.16C824.253 486.51 806.1 484.582 796.545 490.124C785.319 496.63 773.376 484.582 767.166 481.932C710.078 458.078 666.606 607.708 420.102 702.883C257.678 765.53 212.295 712.762 157.835 707.461C154.252 707.22 154.252 712.762 157.835 713.003C164.523 713.726 170.733 714.931 177.182 716.618C268.665 870.826 321.215 843.598 628.627 851.068C903.793 857.814 1188.04 870.826 1454.84 805.528L1454.6 563.373Z" fill="url(#paint2_linear)"/> <path opacity="0.6" d="M1153.4 398.081C1146.47 392.057 1138.83 389.889 1130.47 386.757C1116.38 381.697 1111.12 370.372 1100.37 361.457C1086.28 349.891 1071.47 355.674 1056.42 361.939C1017.49 360.252 979.273 311.098 945.832 353.505C934.845 367.481 928.396 377.841 908.093 371.818C900.927 369.649 894 367.24 886.595 370.131C877.28 373.745 872.741 383.865 863.426 387.961C853.871 392.057 843.362 392.298 833.807 397.117C830.941 398.563 832.613 402.9 835.479 402.9C888.984 405.551 942.488 410.611 995.993 407.237C1047.11 404.105 1100.14 399.045 1151.25 403.623C1153.64 403.623 1155.31 399.768 1153.4 398.081Z" fill="white"/> <path opacity="0.6" d="M696.702 553.976C689.536 547.952 682.131 547.47 673.293 545.302C669.233 544.338 666.128 543.615 663.739 539.519C663.022 538.314 662.784 536.628 662.067 535.423C660.395 532.531 658.006 530.122 655.379 528.194C649.646 524.098 643.436 522.893 637.465 523.616C628.627 515.183 616.206 510.605 604.263 512.773C602.591 513.014 600.919 513.496 599.486 513.978C598.53 514.219 597.575 514.46 596.381 514.701C594.231 515.424 592.32 516.147 590.648 517.352C582.049 521.448 574.883 527.953 570.106 536.146C564.851 533.736 559.119 532.049 553.147 532.772C545.742 533.736 542.16 538.796 536.905 543.615C527.828 551.807 517.796 553.253 506.331 554.217C499.165 554.94 492.954 556.385 487.461 561.204C486.028 562.409 487.222 564.578 488.894 564.578C557.924 568.915 626.955 566.505 695.269 557.349C696.702 557.349 698.135 555.422 696.702 553.976Z" fill="white"/> <path opacity="0.2" d="M934.678 616.426C934.678 616.426 937.941 605.484 832.936 618.537C727.74 631.591 794.543 625.448 652.297 628.712C510.051 631.975 517.154 633.319 481.257 635.046C445.167 636.774 481.257 630.055 417.524 635.046C353.792 640.038 333.06 645.988 333.06 645.988C333.06 645.988 445.359 645.029 492.007 645.988C538.654 646.948 649.994 632.935 704.704 639.078C759.606 645.221 851.557 631.207 917.977 630.247C984.397 629.288 1078.46 628.328 1078.46 628.328C1078.46 628.328 982.093 612.395 941.589 617.578" fill="white"/> <path opacity="0.2" d="M57.0137 607.02C130.344 608.939 207.13 604.524 251.09 605.676C295.05 606.828 406.006 597.805 490.471 602.796C575.127 607.788 543.069 612.395 632.909 606.828C722.748 601.261 762.869 605.676 762.869 605.676C762.869 605.676 745.976 602.413 702.592 608.555C659.208 614.698 623.502 618.154 577.239 616.042C530.975 613.93 532.127 614.122 484.52 614.314C436.912 614.506 301.961 618.154 257.041 616.042C212.121 613.93 57.0137 607.02 57.0137 607.02Z" fill="white"/> <path d="M1294.04 456.519C1291.35 446.921 1310.74 457.479 1310.74 457.479C1310.74 457.479 1303.63 440.97 1304.79 442.314C1305.94 443.466 1319.95 443.657 1319.95 443.657C1319.95 443.657 1305.55 425.229 1308.63 421.965C1311.89 418.702 1333.2 419.854 1333.2 419.854C1333.2 419.854 1314 414.095 1304.79 400.465C1295.57 386.836 1293.46 368.599 1294.42 371.095C1295.38 373.782 1306.9 375.318 1306.9 375.318C1306.9 375.318 1294.61 365.72 1299.03 365.336C1303.44 365.144 1327.05 372.055 1327.05 372.055C1327.05 372.055 1274.65 271.081 1271 258.987C1267.54 246.701 1286.17 260.715 1286.17 260.715C1286.17 260.715 1275.42 246.701 1278.1 239.215C1280.79 231.728 1293.65 235.759 1293.65 235.759C1293.65 235.759 1239.13 143.616 1235.49 102.536C1235.49 102.536 1232.8 99.0804 1230.5 102.536C1230.5 102.536 1228.77 166.844 1184.81 242.286C1184.81 242.286 1203.04 232.688 1201.32 236.335C1199.59 239.791 1196.52 245.166 1196.52 245.166C1196.52 245.166 1218.21 238.639 1215.71 242.286C1213.03 245.934 1196.52 310.626 1172.52 338.269C1172.52 338.269 1194.98 321.76 1191.91 328.862C1189.03 335.773 1185 343.452 1185 343.452C1185 343.452 1214.18 327.327 1214.18 332.126C1214.18 336.733 1180.58 408.144 1159.85 431.564C1159.85 431.564 1187.5 423.693 1185.19 428.108C1182.89 432.524 1177.9 441.354 1177.9 441.354C1177.9 441.354 1194.79 432.524 1195.17 438.666C1195.56 444.809 1189.61 451.144 1189.61 451.144C1189.61 451.144 1204 446.153 1203.24 451.912C1202.28 457.671 1159.85 566.131 1159.85 566.131C1159.85 566.131 1192.87 542.136 1195.17 545.207C1197.48 548.278 1195.17 559.22 1195.17 559.22C1195.17 559.22 1209.19 546.551 1211.11 551.158C1213.03 555.765 1227.62 545.591 1226.66 550.966C1226.27 553.461 1235.49 555.573 1245.66 557.109V641.381H1266.97V559.796C1269.46 559.988 1270.81 560.18 1270.81 560.18C1270.81 560.18 1266.78 548.47 1270.81 549.046C1274.84 549.622 1301.71 559.604 1301.71 559.604C1301.71 559.604 1299.6 549.622 1307.28 550.966C1314.77 552.31 1352.59 559.796 1352.59 559.796C1352.59 559.796 1296.72 466.117 1294.04 456.519Z" fill="#1D3F5B"/> <path d="M656.712 642.533C656.136 640.23 660.552 642.725 660.552 642.725C660.552 642.725 658.824 638.886 659.208 639.27C659.4 639.462 662.663 639.654 662.663 639.654C662.663 639.654 659.4 635.43 659.976 634.663C660.743 633.895 665.735 634.279 665.735 634.279C665.735 634.279 661.319 632.935 659.208 629.863C657.096 626.792 656.52 622.377 656.712 623.145C656.904 623.721 659.592 624.105 659.592 624.105C659.592 624.105 656.712 621.801 657.672 621.801C658.632 621.801 664.199 623.337 664.199 623.337C664.199 623.337 651.913 599.917 651.145 597.037C650.377 594.158 654.601 597.421 654.601 597.421C654.601 597.421 652.105 594.158 652.681 592.43C653.257 590.703 656.328 591.662 656.328 591.662C656.328 591.662 643.659 570.162 642.699 560.756C642.699 560.756 642.123 559.988 641.547 560.756C641.547 560.756 641.163 575.729 630.989 593.198C630.989 593.198 635.212 590.895 634.828 591.854C634.444 592.622 633.676 593.966 633.676 593.966C633.676 593.966 638.667 592.43 638.092 593.39C637.516 594.158 633.676 609.323 628.109 615.658C628.109 615.658 633.292 611.819 632.717 613.546C631.949 615.082 631.181 617.002 631.181 617.002C631.181 617.002 637.9 613.355 637.9 614.314C637.9 615.466 630.029 631.975 625.23 637.35C625.23 637.35 631.757 635.43 631.181 636.582C630.605 637.734 629.453 639.654 629.453 639.654C629.453 639.654 633.484 637.542 633.484 639.078C633.484 640.422 632.141 641.957 632.141 641.957C632.141 641.957 635.404 640.806 635.212 642.149C635.02 643.493 625.23 668.64 625.23 668.64C625.23 668.64 632.909 663.073 633.484 663.841C634.06 664.609 633.484 667.105 633.484 667.105C633.484 667.105 636.748 664.225 637.132 665.185C637.516 666.337 640.971 663.841 640.779 665.185C640.779 665.761 642.891 666.337 645.194 666.721V686.301H650.185V666.721C650.761 666.721 651.145 666.721 651.145 666.721C651.145 666.721 650.185 664.033 651.145 664.225C652.105 664.417 658.248 666.721 658.248 666.721C658.248 666.721 657.864 664.417 659.592 664.801C661.319 665.185 670.15 666.913 670.15 666.913C670.15 666.913 657.288 644.837 656.712 642.533Z" fill="#1D3F5B"/> <path d="M447.47 650.98C446.319 646.756 454.765 651.364 454.765 651.364C454.765 651.364 451.694 644.261 452.078 644.645C452.653 645.221 458.604 645.221 458.604 645.221C458.604 645.221 452.27 637.158 453.613 635.814C454.957 634.471 464.363 634.855 464.363 634.855C464.363 634.855 455.917 632.359 451.886 626.408C447.854 620.457 446.895 612.395 447.278 613.546C447.662 614.698 452.845 615.466 452.845 615.466C452.845 615.466 447.47 611.243 449.39 611.051C451.31 610.859 461.676 613.93 461.676 613.93C461.676 613.93 438.64 569.779 437.104 564.404C435.569 559.028 443.823 565.171 443.823 565.171C443.823 565.171 439.216 559.028 440.368 555.765C441.519 552.502 447.086 554.229 447.086 554.229C447.086 554.229 423.283 513.917 421.555 495.872C421.555 495.872 420.403 494.336 419.444 495.872C419.444 495.872 418.676 524.091 399.479 557.109C399.479 557.109 407.542 552.886 406.774 554.421C406.006 555.957 404.662 558.261 404.662 558.261C404.662 558.261 414.26 555.381 413.109 556.917C411.957 558.453 404.662 586.863 394.296 598.957C394.296 598.957 404.086 591.663 402.743 594.734C401.399 597.805 399.671 601.069 399.671 601.069C399.671 601.069 412.341 593.966 412.341 596.078C412.341 598.189 397.56 629.288 388.537 639.654C388.537 639.654 400.631 636.198 399.671 638.118C398.711 640.038 396.408 643.877 396.408 643.877C396.408 643.877 403.894 640.038 403.894 642.725C404.086 645.413 401.399 648.292 401.399 648.292C401.399 648.292 407.734 646.181 407.35 648.676C406.966 651.172 388.345 698.779 388.345 698.779C388.345 698.779 402.743 688.221 403.702 689.565C404.662 690.908 403.702 695.708 403.702 695.708C403.702 695.708 409.845 690.141 410.613 692.252C411.381 694.364 417.716 689.757 417.332 692.252C417.14 693.404 421.171 694.364 425.586 694.94V731.989H434.993V696.283C436.144 696.475 436.72 696.475 436.72 696.475C436.72 696.475 434.993 691.292 436.72 691.676C438.448 691.868 450.35 696.283 450.35 696.283C450.35 696.283 449.39 691.868 452.845 692.444C456.109 693.02 472.618 696.283 472.618 696.283C472.618 696.283 448.622 655.203 447.47 650.98Z" fill="#1D3F5B"/> <path d="M1273.88 229.808H1256.41L1263.9 245.741H1256.41C1256.41 245.741 1261.79 257.643 1273.88 286.822C1285.97 316.193 1315.54 351.514 1312.27 352.666C1309.01 354.01 1300.56 352.666 1300.56 352.666C1300.56 352.666 1264.28 349.403 1273.88 357.465C1283.67 365.528 1290.96 379.157 1280.6 383.38C1270.04 387.604 1266.39 387.604 1273.88 402.385C1281.56 417.166 1273.88 439.242 1273.88 439.242V447.497C1273.88 447.497 1272.15 458.055 1285.78 482.818C1299.41 507.582 1312.46 526.778 1312.46 526.778C1312.46 526.778 1289.05 516.796 1293.27 524.283C1297.49 531.769 1300.56 540.408 1293.27 539.832C1285.97 539.256 1256.41 528.89 1256.41 528.89L1271 549.43C1275.03 550.006 1301.91 559.988 1301.91 559.988C1301.91 559.988 1299.8 550.006 1307.47 551.35C1314.96 552.693 1352.78 560.18 1352.78 560.18C1352.78 560.18 1296.53 466.309 1294.04 456.711C1291.35 447.113 1310.74 457.671 1310.74 457.671C1310.74 457.671 1303.63 441.162 1304.79 442.506C1305.94 443.657 1319.95 443.849 1319.95 443.849C1319.95 443.849 1305.55 425.421 1308.63 422.157C1311.89 418.894 1333.2 420.046 1333.2 420.046C1333.2 420.046 1314 414.287 1304.79 400.657C1295.57 387.028 1293.46 368.791 1294.42 371.287C1295.38 373.782 1306.9 375.51 1306.9 375.51C1306.9 375.51 1294.61 365.912 1299.03 365.528C1303.44 365.336 1327.05 372.246 1327.05 372.246C1327.05 372.246 1274.65 271.273 1271 259.179C1267.54 246.893 1286.17 260.907 1286.17 260.907C1286.17 260.907 1275.42 246.893 1278.1 239.407C1280.79 231.92 1293.65 235.951 1293.65 235.951C1293.65 235.951 1239.13 143.808 1235.49 102.728C1235.49 102.728 1236.45 164.732 1256.41 184.889C1276.38 204.853 1273.88 229.808 1273.88 229.808Z" fill="#0C3049"/> <path d="M1256.41 553.077L1267.16 619.113V559.796C1269.66 559.988 1271 560.18 1271 560.18C1271 560.18 1267.93 551.35 1269.85 549.43L1256.41 553.077Z" fill="#0C3049"/> <path d="M0 763.279V706.842C0 706.842 32.2501 668.641 74.0985 665.953C115.947 663.266 100.206 686.877 156.835 678.431C213.273 669.984 224.215 658.658 270.671 687.645C317.126 716.632 404.662 741.971 470.314 715.672C535.966 689.373 581.846 647.524 650.569 653.667C719.485 659.81 830.44 610.475 891.677 626.408C952.914 642.341 1146.61 670.56 1238.37 626.408C1330.32 582.256 1382.72 627.368 1440.12 620.265L1439.93 693.212L1374.28 777.485L39.5448 791.306L0 763.279Z" fill="#1D3F5B"/> <path d="M905.38 742.863C917.136 726.507 913.407 703.717 897.05 691.961C880.693 680.205 857.904 683.935 846.148 700.292C834.392 716.648 838.122 739.438 854.478 751.194C870.835 762.95 893.625 759.22 905.38 742.863Z" fill="#0C3049"/> <path d="M1178.98 720.882C1191.43 705.051 1188.7 682.119 1172.87 669.663C1157.04 657.206 1134.11 659.941 1121.65 675.772C1109.19 691.603 1111.93 714.535 1127.76 726.991C1143.59 739.448 1166.52 736.713 1178.98 720.882Z" fill="#0C3049"/> <path d="M1150.25 720.663C1138.93 720.663 1129.14 711.832 1128.18 700.314C1127.6 694.364 1129.52 688.605 1133.36 684.189C1137.2 679.582 1142.58 676.895 1148.53 676.319C1154.48 675.743 1160.24 677.663 1164.65 681.502C1169.26 685.341 1171.95 690.716 1172.52 696.667C1173.1 702.618 1171.18 708.377 1167.34 712.792C1163.5 717.399 1158.12 720.087 1152.17 720.663C1151.41 720.471 1150.83 720.663 1150.25 720.663ZM1150.25 678.622C1149.68 678.622 1149.1 678.622 1148.53 678.622C1143.34 679.006 1138.54 681.502 1135.09 685.533C1131.63 689.564 1130.1 694.747 1130.48 699.931C1131.44 710.681 1141.04 718.743 1151.79 717.975C1156.97 717.591 1161.77 715.096 1165.23 711.065C1168.68 707.033 1170.22 701.85 1169.83 696.667C1169.45 691.484 1166.96 686.685 1162.92 683.23C1159.47 680.158 1154.86 678.622 1150.25 678.622Z" fill="#1D3F5B"/> <path d="M875.744 743.699C870.561 743.699 865.57 741.779 861.347 738.515C856.739 734.676 854.052 729.301 853.476 723.35C852.9 717.399 854.82 711.64 858.659 707.225C862.498 702.618 867.873 699.931 873.824 699.355C886.11 698.395 896.86 707.417 897.82 719.703C898.78 731.989 889.757 742.739 877.472 743.699C876.896 743.699 876.32 743.699 875.744 743.699ZM875.744 701.85C875.168 701.85 874.592 701.85 874.016 701.85C868.833 702.234 864.034 704.73 860.579 708.761C857.123 712.792 855.588 717.975 855.972 723.158C856.356 728.341 858.851 733.14 862.882 736.596C866.914 740.051 872.097 741.587 877.28 741.203C888.03 740.243 896.284 730.645 895.324 719.895C894.557 709.529 885.918 701.85 875.744 701.85Z" fill="#1D3F5B"/> <path d="M1230.3 679.199C1229.54 678.623 1228.58 678.239 1227.42 678.239L1224.16 678.431L1221.67 648.1C1219.36 620.073 1215.33 592.238 1209.57 564.787L1205.92 547.127C1204.39 539.64 1200.16 533.497 1194.6 529.274C1188.84 525.051 1181.74 522.747 1174.25 523.515L842.15 551.542C837.735 551.926 833.704 553.653 830.44 556.341C827.369 558.837 825.065 562.292 823.722 566.323L799.918 641.19C799.15 643.493 798.574 645.605 798.19 647.908C797.039 653.283 796.847 658.85 797.23 664.417L801.454 714.52L798.19 714.712C797.039 714.904 796.079 715.48 795.311 716.248C794.735 717.016 794.543 717.784 794.543 718.743L796.271 738.708C796.463 740.051 797.23 741.203 798.382 741.779C798.958 742.163 799.726 742.163 800.494 742.163L836.391 739.092C834.472 734.676 833.128 730.069 832.744 725.078C830.632 701.275 848.485 680.158 872.289 678.239C896.092 676.127 917.209 693.98 919.128 717.784C919.512 722.775 919.128 727.574 917.976 732.181L1110.9 715.864C1108.98 711.449 1107.64 706.841 1107.25 701.85C1105.14 678.047 1123 656.931 1146.8 655.011C1170.6 652.899 1191.72 670.752 1193.64 694.556C1194.02 699.547 1193.64 704.346 1192.49 708.953L1229.92 705.882C1231.46 705.69 1232.8 704.73 1233.18 703.194C1233.37 702.81 1233.37 702.234 1233.37 701.658L1231.65 681.694C1231.46 680.734 1230.88 679.774 1230.3 679.199Z" fill="#0C3049"/> <path d="M1033.54 612.587L985.548 616.618C984.588 616.618 983.82 616.618 983.053 616.234C981.517 615.466 980.365 614.122 980.365 612.203L976.718 568.435C976.526 566.707 977.294 565.171 978.445 564.211C979.213 563.636 980.173 563.252 981.133 563.06L1029.12 559.028C1030.47 558.836 1031.62 559.412 1032.58 560.18C1033.54 560.948 1034.12 562.1 1034.31 563.444L1037.95 607.212C1038.15 609.131 1037.19 610.667 1035.84 611.627C1035.08 612.395 1034.31 612.587 1033.54 612.587ZM913.561 622.761L961.553 618.729C962.896 618.538 963.856 617.962 964.624 617.194C965.584 616.234 965.968 614.89 965.968 613.546L962.32 569.778C962.32 568.819 961.936 568.051 961.361 567.283C960.401 565.939 958.865 565.171 957.137 565.363L909.146 569.394C908.186 569.394 907.226 569.97 906.459 570.546C905.307 571.506 904.539 573.042 904.731 574.77L908.378 618.537C908.57 620.265 909.53 621.801 911.066 622.569C911.834 622.761 912.601 622.953 913.561 622.761ZM1120.69 556.341L1124.34 600.109C1124.53 602.028 1125.68 603.564 1127.22 604.14C1127.99 604.524 1128.75 604.524 1129.52 604.524L1182.7 600.109C1183.85 600.109 1184.81 599.533 1185.58 598.765C1186.54 597.805 1187.3 596.27 1187.11 594.734L1183.46 550.966C1183.27 549.622 1182.7 548.47 1181.74 547.702C1180.78 546.935 1179.43 546.359 1178.09 546.551L1124.91 550.966C1123.76 551.158 1122.8 551.542 1122.04 552.31C1121.08 553.269 1120.5 554.805 1120.69 556.341ZM884.959 571.314L852.132 574.002C851.173 574.002 850.405 574.386 849.637 574.961C848.869 575.537 848.101 576.497 847.909 577.457L833.704 622.761C832.936 625.064 834.088 627.176 835.815 628.328C836.583 628.904 837.735 629.096 838.695 629.096L889.374 624.872C890.717 624.68 891.869 624.104 892.637 623.145C893.405 622.185 893.789 621.033 893.789 619.689L890.142 575.921C890.142 574.961 889.758 574.194 889.374 573.618C888.414 572.082 886.686 571.122 884.959 571.314ZM1100.92 553.077L1052.93 557.109C1051.78 557.301 1050.82 557.685 1050.05 558.452C1049.09 559.412 1048.51 560.756 1048.51 562.292L1052.16 606.06C1052.35 607.404 1052.93 608.555 1053.89 609.323C1054.85 610.091 1056 610.475 1057.34 610.475L1105.33 606.444C1106.49 606.444 1107.45 605.868 1108.21 605.1C1109.37 604.14 1109.94 602.604 1109.75 601.069L1106.1 557.301C1105.91 555.765 1105.14 554.421 1103.99 553.653C1103.22 553.269 1102.07 553.077 1100.92 553.077Z" fill="#92D3E1"/> <path d="M1134.47 511.459L907.21 530.651L907.76 537.155L1135.02 517.963L1134.47 511.459Z" fill="#0C3049"/> <path d="M933.661 531.597L928.114 532.065L929.439 547.751L934.986 547.283L933.661 531.597Z" fill="#0C3049"/> <path d="M1087.64 518.729L1082.09 519.197L1083.41 534.883L1088.96 534.415L1087.64 518.729Z" fill="#0C3049"/> <path d="M1114.55 480.899L1110.52 481.283L1110.33 479.555C1110.13 476.867 1107.64 474.756 1104.95 474.948L1092.66 475.908V475.716C1092.47 472.452 1089.59 470.149 1086.33 470.341L1078.27 471.108L1078.08 468.613C1077.69 464.774 1074.43 461.894 1070.4 462.278L1049.09 464.006C1045.25 464.39 1042.37 467.653 1042.75 471.684L1042.95 474.18L1034.69 474.756C1031.43 474.948 1029.12 477.827 1029.32 481.091L1029.89 488.001L1025.09 488.385L1024.52 481.475C1024.33 478.211 1021.45 475.908 1018.18 476.1L954.066 481.475C950.803 481.666 948.499 484.546 948.691 487.809L949.075 491.265L934.677 492.417L935.061 496.064L949.459 494.912L949.843 498.367C950.035 501.631 952.914 503.934 956.178 503.742L928.535 506.046C925.271 506.238 922.968 509.117 923.16 512.381L924.119 522.939C924.311 526.202 927.191 528.506 930.454 528.314L1011.27 521.403L1022.02 520.443L1038.53 519.1L1044.48 518.524L1084.03 515.26L1089.98 514.684L1117.24 512.381C1120.5 512.189 1122.8 509.309 1122.61 506.046L1120.88 485.89C1120.69 483.01 1117.81 480.707 1114.55 480.899ZM1104.95 476.675C1106.68 476.483 1108.21 477.827 1108.41 479.555L1108.6 481.283L1093.05 482.626L1092.66 477.635L1104.95 476.675ZM1045.06 471.3C1044.87 468.805 1046.78 466.693 1049.28 466.309L1070.59 464.582C1073.08 464.39 1075.2 466.309 1075.58 468.805L1075.77 471.3L1045.44 473.796L1045.06 471.3Z" fill="#0C3049"/> <path d="M933.967 516.07L915.985 517.589L916.292 521.223L934.274 519.705L933.967 516.07Z" fill="#0C3049"/> <path d="M0 820.293V763.279C0 763.279 263.952 792.65 678.596 765.391C1148.14 734.676 1439.93 693.02 1439.93 693.02L1439.74 820.293H0Z" fill="#0C3049"/> <path d="M273.358 696.091C272.782 698.779 272.398 701.466 272.59 704.346C272.782 707.801 272.782 712.792 268.943 714.328C266.255 715.48 264.528 713.944 264.912 711.065C265.104 709.337 266.063 707.609 266.831 705.882C267.983 703.194 268.367 700.891 267.983 698.587C257.041 703.962 245.523 711.257 235.733 721.047C235.733 724.502 236.501 728.15 237.653 731.221C238.996 734.676 241.3 739.284 238.421 742.739C235.925 745.618 233.429 744.275 232.086 741.395C230.934 738.9 231.126 736.212 231.126 733.717C231.126 731.413 230.55 729.493 229.782 727.766C228.63 729.109 227.479 730.645 226.519 731.989C225.943 719.319 223.063 706.649 217.88 694.94C217.112 693.212 216.345 691.676 215.577 690.141C221.144 689.949 232.278 686.685 234.197 665.953C234.197 665.953 213.465 667.873 211.545 681.886C207.13 673.248 202.715 664.801 198.684 656.163C203.483 655.011 215.385 650.212 212.313 627.944C212.313 627.944 195.996 633.703 194.077 645.221C191.197 637.35 189.086 629.096 188.126 620.265C187.934 618.73 187.934 617.194 187.742 615.85C192.349 616.618 205.787 616.81 210.97 594.35C210.97 594.35 194.077 593.966 188.126 603.756C189.086 592.43 192.157 581.68 197.34 571.89C201.755 574.578 213.465 578.801 226.519 561.14C226.519 561.14 215.769 556.149 206.746 558.261C209.626 554.997 212.697 552.118 215.961 549.238C221.912 549.046 231.702 545.591 235.157 526.778C235.157 526.778 208.474 526.97 210.97 546.935C208.09 549.238 205.595 551.734 203.099 554.421C203.099 549.43 201.179 543.095 194.844 535.417C194.844 535.417 177.952 555.573 194.077 566.707C188.126 576.881 184.67 588.207 183.327 600.109C180.639 595.502 175.072 591.087 164.13 588.399C164.13 588.399 162.978 614.698 182.559 613.546C182.751 622.761 184.094 631.975 186.782 640.805C182.943 637.734 176.608 635.622 166.818 636.006C166.818 636.006 172.96 662.114 191.965 655.203C195.42 663.265 199.836 671.136 203.867 678.815C200.028 677.471 194.844 677.087 188.126 679.198C184.286 674.975 179.871 670.752 175.264 666.529C173.344 671.52 173.152 676.895 172.193 683.23C171.617 686.685 170.081 690.524 166.05 689.373C160.099 687.837 162.402 680.542 163.746 676.703C166.626 667.873 164.13 660.578 159.715 653.475C147.621 644.261 133.224 635.047 116.331 626.024C116.331 626.024 112.683 646.756 114.987 674.207C118.059 676.127 121.514 677.663 125.161 678.815C129.768 680.158 136.103 682.27 136.487 687.837C136.871 691.676 133.992 693.404 130.536 691.676C128.233 690.716 126.505 688.605 124.777 686.877C121.706 684.19 119.018 682.654 115.947 682.27C118.059 698.587 122.474 716.632 130.92 733.525C135.335 735.06 140.326 735.636 144.934 735.444C149.925 735.252 157.027 734.292 160.099 739.283C162.786 743.699 159.907 746.386 155.492 746.962C151.844 747.346 148.389 745.81 145.126 744.851C142.054 743.891 139.559 743.699 136.871 744.083C152.036 768.27 176.608 789.002 216.729 798.217C216.729 798.217 217.112 797.449 217.688 796.105C229.206 795.721 252.242 791.69 272.59 768.462C266.639 765.199 253.01 774.413 250.514 766.735C248.979 762.127 254.93 761.935 257.809 762.319C261.456 762.895 264.336 764.431 268.175 763.855C272.974 763.279 277.197 760.784 280.845 757.712C285.068 751.569 289.099 744.275 292.747 735.828C288.907 735.636 284.876 736.788 280.269 737.556C277.773 737.94 274.702 737.748 274.51 734.676C274.318 730.261 279.693 730.069 282.764 730.069C289.675 730.069 294.282 726.614 297.93 721.815C301.577 711.065 304.648 698.971 306.952 684.957C307.336 685.533 291.979 688.029 273.358 696.091ZM221.336 737.556C219.032 727.958 215.001 717.399 208.666 706.649C201.755 712.792 207.706 734.484 196.956 734.1C190.237 733.909 192.541 726.422 194.461 722.966C196.956 718.551 200.028 715.48 200.987 710.297C202.139 704.922 201.371 699.355 199.644 694.172C203.099 694.94 206.938 694.364 210.778 691.868C212.505 695.516 214.041 699.163 215.577 702.81C219.608 713.752 221.72 725.462 221.528 737.172C221.336 737.364 221.336 737.556 221.336 737.556Z" fill="#0C3049"/> </g> <defs> <linearGradient id="paint0_linear" x1="744.449" y1="730.201" x2="750.309" y2="391.367" gradientUnits="userSpaceOnUse"> <stop offset="0.00558659" stop-color="#04DEFF"/> <stop offset="0.9944" stop-color="#5DF04E"/> </linearGradient> <linearGradient id="paint1_linear" x1="31.021" y1="710.511" x2="1455.27" y2="710.511" gradientUnits="userSpaceOnUse"> <stop offset="0.00558659" stop-color="#30D220"/> <stop offset="0.9944" stop-color="#5DF04E"/> </linearGradient> <linearGradient id="paint2_linear" x1="155.165" y1="639.69" x2="1454.89" y2="639.69" gradientUnits="userSpaceOnUse"> <stop offset="0.00558659" stop-color="#53B3FA"/> <stop offset="0.9944" stop-color="#4A5CF0"/> </linearGradient> </defs> </svg>